<svg width="230" height="299" viewBox="0 0 230 299" fill="none" xmlns="http://www.w3.org/2000/svg">
<path d="M173.35 100.15C170.483 97.2833 167.517 94.6167 164.45 92.15C147.917 79.0833 128.65 72.55 106.65 72.55C80.5833 72.55 58.3333 81.75 39.9 100.15C21.5 118.583 12.3 140.833 12.3 166.9C12.3 188.9 18.8333 208.167 31.9 224.7C34.3667 227.767 37.0333 230.733 39.9 233.6C41.8333 235.533 43.8167 237.383 45.85 239.15C63.05 253.883 83.3167 261.25 106.65 261.25C132.717 261.25 154.95 252.033 173.35 233.6C191.783 215.2 201 192.967 201 166.9C201 143.567 193.633 123.3 178.9 106.1C177.167 104.067 175.317 102.083 173.35 100.15ZM150.95 105.7H150.9L165.45 119.6L165.5 119.55C176.6 133.017 182.15 148.8 182.15 166.9C182.15 187.767 174.783 205.55 160.05 220.25C145.283 235.017 127.483 242.4 106.65 242.4C88.5611 242.4 72.7611 236.85 59.25 225.75C59.2582 225.757 59.2582 225.757 59.25 225.75L45.45 211.2V211.25C35.95 198.45 31.2 183.667 31.2 166.9C31.2 146.067 38.5333 128.267 53.2 113.5C67.9667 98.7667 85.7833 91.4 106.65 91.4C123.383 91.4 138.15 96.1667 150.95 105.7Z" fill="#FF5900"/>
<path d="M150.9 105.7H150.95C138.15 96.1667 123.383 91.4 106.65 91.4C85.7833 91.4 67.9667 98.7667 53.2 113.5C38.5333 128.267 31.2 146.067 31.2 166.9C31.2 183.667 35.95 198.45 45.45 211.25V211.2L59.25 225.75C59.2582 225.757 59.2582 225.757 59.25 225.75C72.7611 236.85 88.5611 242.4 106.65 242.4C127.483 242.4 145.283 235.017 160.05 220.25C174.783 205.55 182.15 187.767 182.15 166.9C182.15 148.8 176.6 133.017 165.5 119.55L165.45 119.6L150.9 105.7Z" class="icon-bg"/>
<path d="M59.275 225.775C59.2665 225.765 59.2582 225.757 59.25 225.75" stroke-width="0.1" stroke-linejoin="round"/>
<path d="M65.85 142.25C63.7615 142.247 61.8281 142.28 60.05 142.35C58.3118 142.416 57.5618 143.649 57.8 146.05C58.0701 148.482 57.9201 149.799 57.35 150C56.3833 150.333 55.5167 150.733 54.75 151.2C52.2167 152.567 50.4 154.6 49.3 157.3C49.0333 157.967 48.8833 158.6 48.85 159.2L48.5 162.2C48.3667 163.9 48.2833 165.617 48.25 167.35C47.5833 167.583 47.0667 167.967 46.7 168.5C46.3333 169.033 46.1333 169.617 46.1 170.25C46.1 171.783 46.5333 173.167 47.4 174.4L51.35 181.6L52.05 182.65C52.4833 183.117 52.7167 183.417 52.75 183.55C52.7833 183.683 52.6 183.983 52.2 184.45C50.7667 186.25 48.6833 187.717 45.95 188.85C44.3833 189.45 42.0333 190.267 38.9 191.3C38.8667 191.367 38.8 191.4 38.7 191.4C40.4 195.933 42.5833 200.283 45.25 204.45H56.35C58.1167 199.45 60.2 196.083 62.6 194.35C65.0333 192.583 68.6833 190.567 73.55 188.3C70.15 186.4 68.2 185.15 67.7 184.55C67.4333 184.017 67.4167 183.617 67.65 183.35C68.15 183.017 68.5667 182.6 68.9 182.1C69.6333 181.3 70.5167 180.117 71.55 178.55L75.2 173.2L75.35 173.15C76.1167 171.917 76.5 170.617 76.5 169.25C76.3667 168.45 75.9 167.917 75.1 167.65L75.9 160.25C76.1333 157.55 75.4167 155.217 73.75 153.25C72.6105 151.882 70.2939 150.682 66.8 149.65C68.2505 144.756 67.9339 142.29 65.85 142.25ZM149.25 149.7C148.483 150.228 147.35 150.978 145.85 151.95C144.35 152.918 143.3 154.835 142.7 157.7C142.567 158.2 142.5 158.85 142.5 159.65L142.9 162.8C143.033 164.067 143.3 165.883 143.7 168.25C143.1 168.517 142.667 168.917 142.4 169.45C142.033 170.017 141.917 170.633 142.05 171.3C142.417 172.967 143.167 174.45 144.3 175.75L150.1 183.35L151.05 184.35L150.95 184.4C151.55 184.9 151.85 185.183 151.85 185.25C151.883 185.45 151.767 185.8 151.5 186.3L145.4 188.75C151.2 190.15 155.45 192.35 158.15 195.35C160.783 198.283 162.767 202.3 164.1 207.4H167.6C171.133 202.4 173.95 197.083 176.05 191.45C175.517 191.283 175.05 191.1 174.65 190.9C171.783 189.733 169.55 188.2 167.95 186.3C167.483 185.8 167.367 185.417 167.6 185.15C167.733 184.917 168.1 184.467 168.7 183.8C169.167 183 169.85 181.75 170.75 180.05L173.5 174.25C174.133 172.95 174.25 171.6 173.85 170.2C173.583 169.3 172.983 168.75 172.05 168.55L171.35 160.7C171.05 157.833 169.783 155.383 167.55 153.35C165.845 151.688 163.778 150.388 161.35 149.45C158.959 148.542 157.076 148.175 155.7 148.35C154.324 148.531 153.107 148.665 152.05 148.75C150.989 148.862 150.055 149.178 149.25 149.7Z" class="icon-fg"/>
<path d="M133.4 127.7C130.767 124.1 127.2 122.067 122.7 121.6C121.767 120.3 120.583 119.1 119.15 118C115.417 114.767 111.033 113.517 106 114.25C100.867 115.383 96.3833 117.617 92.55 120.95C88.1167 124.517 84.2 128.517 80.8 132.95L79.45 134.55L81.4 135.1C83.5 135.733 84.9 137.567 85.6 140.6C86 142.367 86.2333 145.317 86.3 149.45L86.4 154.5L87.05 154.8C85.8833 155.6 85.3 157.267 85.3 159.8C85.3 161.9 85.6 163.683 86.2 165.15C86.7667 166.35 87.5167 167.25 88.45 167.85C89.0167 168.183 89.6833 168.35 90.45 168.35H90.8C91 170.583 91.85 172.6 93.35 174.4C93.75 174.867 95.2167 176.183 97.75 178.35H97.65C95.8167 181.583 92.5833 184.133 87.95 186C82.25 187.833 77.9667 189.267 75.1 190.3C70 192.1 66.2333 194.367 63.8 197.1C60.6 200.767 57.95 207.5 55.85 217.3C94.4257 246.08 130.276 244.747 163.4 213.3C162 206.167 159.667 200.767 156.4 197.1C153.933 194.267 150.15 191.933 145.05 190.1C139.117 188.4 134.8 187.017 132.1 185.95C127.6 184.117 124.5 181.65 122.8 178.55C123.867 177.583 125.433 176.15 127.5 174.25C129 172.517 129.783 170.55 129.85 168.35C130.95 168.45 131.767 168.367 132.3 168.1C132.933 167.8 133.433 167.133 133.8 166.1C134.367 164.7 134.95 163.033 135.55 161.1C136.15 158.533 135.6 156.8 133.9 155.9C133.467 155.567 132.933 155.4 132.3 155.4C135.8 151.867 137.617 147.583 137.75 142.55C137.883 139.983 137.583 137.367 136.85 134.7C136.017 132 134.867 129.667 133.4 127.7Z" class="icon-fg"/>
<path d="M173.35 100.15C170.483 97.2833 167.517 94.6167 164.45 92.15C147.917 79.0833 128.65 72.55 106.65 72.55C80.5833 72.55 58.3333 81.75 39.9 100.15C21.5 118.583 12.3 140.833 12.3 166.9C12.3 188.9 18.8333 208.167 31.9 224.7C34.3667 227.767 37.0333 230.733 39.9 233.6C41.8333 235.533 43.8167 237.383 45.85 239.15C63.05 253.883 83.3167 261.25 106.65 261.25C132.717 261.25 154.95 252.033 173.35 233.6C191.783 215.2 201 192.967 201 166.9C201 143.567 193.633 123.3 178.9 106.1C177.167 104.067 175.317 102.083 173.35 100.15ZM165.5 119.55C176.6 133.017 182.15 148.8 182.15 166.9C182.15 187.767 174.783 205.55 160.05 220.25C145.283 235.017 127.483 242.4 106.65 242.4C88.55 242.4 72.75 236.85 59.25 225.75L165.5 119.55ZM53.2 113.5C67.9667 98.7667 85.7833 91.4 106.65 91.4C123.383 91.4 138.15 96.1667 150.95 105.7L45.45 211.25C35.95 198.45 31.2 183.667 31.2 166.9C31.2 146.067 38.5333 128.267 53.2 113.5Z" fill="#FF5900"/>
</svg>
