<svg width="230" height="299" viewBox="0 0 230 299" fill="none" xmlns="http://www.w3.org/2000/svg">
<path d="M105.6 71.85C79.5333 71.85 57.2833 81.05 38.85 99.45C20.45 117.883 11.25 140.133 11.25 166.2C11.25 188.2 17.7833 207.467 30.85 224C33.3167 227.067 35.9833 230.033 38.85 232.9C40.7833 234.833 42.7667 236.683 44.8 238.45C62 253.183 82.2667 260.55 105.6 260.55C131.667 260.55 153.9 251.333 172.3 232.9C190.733 214.5 199.95 192.267 199.95 166.2C199.95 142.867 192.583 122.6 177.85 105.4C176.117 103.367 174.267 101.383 172.3 99.45C169.433 96.5833 166.467 93.9167 163.4 91.45C146.867 78.3833 127.6 71.85 105.6 71.85ZM52.15 112.8C66.9167 98.0667 84.7333 90.7 105.6 90.7C122.333 90.7 137.1 95.4667 149.9 105C153.033 107.3 156.067 109.9 159 112.8C160.933 114.767 162.75 116.783 164.45 118.85C175.55 132.317 181.1 148.1 181.1 166.2C181.1 187.067 173.733 204.85 159 219.55C144.233 234.317 126.433 241.7 105.6 241.7C87.5 241.7 71.7 236.15 58.2 225.05C56.1333 223.35 54.1167 221.517 52.15 219.55C49.25 216.65 46.6667 213.65 44.4 210.55C34.9 197.75 30.15 182.967 30.15 166.2C30.15 145.367 37.4833 127.567 52.15 112.8Z" fill="#FF5900"/>
<path d="M105.6 90.7C84.7333 90.7 66.9167 98.0667 52.15 112.8C37.4833 127.567 30.15 145.367 30.15 166.2C30.15 182.967 34.9 197.75 44.4 210.55C46.6667 213.65 49.25 216.65 52.15 219.55C54.1167 221.517 56.1333 223.35 58.2 225.05C71.7 236.15 87.5 241.7 105.6 241.7C126.433 241.7 144.233 234.317 159 219.55C173.733 204.85 181.1 187.067 181.1 166.2C181.1 148.1 175.55 132.317 164.45 118.85C162.75 116.783 160.933 114.767 159 112.8C156.067 109.9 153.033 107.3 149.9 105C137.1 95.4667 122.333 90.7 105.6 90.7Z" class="icon-bg"/>
<path d="M159.85 151.35C155.15 150.75 150.65 150.85 146.35 151.65C143.717 152.483 141.483 153.933 139.65 156C127.117 144.767 113.9 133.833 100 123.2C92.3 119.567 86.9667 114.967 84 109.4C87 107.233 89.5833 103.833 91.75 99.2C93.7167 92.3667 94.2333 84.7167 93.3 76.25C99.6 73.6167 102.867 70.05 103.1 65.55C102.733 61.8833 101.2 59.95 98.5 59.75C99.3333 55.4833 97.8667 52.1667 94.1 49.8C86.5333 46.5667 81.05 49.5667 77.65 58.8C76.1833 62.3333 76.7333 65.4 79.3 68C77.2333 67.5667 75.0333 67.4833 72.7 67.75C70.5 68.65 68.6667 70.1 67.2 72.1C59.7 71.1333 53.2667 72.0167 47.9 74.75C45.4333 76.7833 44.0833 79.1833 43.85 81.95C45.2167 80.15 46.4 79.1167 47.4 78.85C46.4667 81.05 46.05 83.25 46.15 85.45C45.95 92.1833 48.5333 98.0667 53.9 103.1C52.8333 99.3667 53.1333 96.45 54.8 94.35C55.5 93.8833 56.0167 93.8 56.35 94.1C58.6833 99.7 59.85 104.167 59.85 107.5C59.8167 110.833 60.3667 113.433 61.5 115.3C63.3333 117.933 65.95 119.983 69.35 121.45C65.05 127.25 60.65 130.867 56.15 132.3C53.5833 130.033 49.8 128.183 44.8 126.75C43.7 125.75 43.0333 124.767 42.8 123.8L45.2 118.4C45.6333 117.667 45.6333 116.933 45.2 116.2L41.55 114.6C41.6833 113.167 41.1 112.05 39.8 111.25C38.4667 110.45 37.3167 110.717 36.35 112.05C35.55 114.95 35.05 117.8 34.85 120.6C40.2167 127.467 46.9 133.367 54.9 138.3C56.3333 138.867 57.7667 138.867 59.2 138.3C65.5 135.167 70.6 132.95 74.5 131.65C76.5667 131.517 77.4833 131.983 77.25 133.05C76.7167 137.65 76.9833 140.65 78.05 142.05C79.4833 143.183 81.5167 144 84.15 144.5C87.6833 149.067 92.3667 152.3 98.2 154.2C93.0667 158 89.1833 164.1 86.55 172.5C88.1833 171.4 89.7 170.65 91.1 170.25C91.2333 172.817 90.2 175.317 88 177.75L91.1 177.6C90.2333 192.733 91.3 206.467 94.3 218.8C92.7667 222.5 91.8333 226.183 91.5 229.85C90.9 239.65 90.9 249.433 91.5 259.2C89.3333 262.467 87.65 266.717 86.45 271.95C82.5833 271.783 80.6833 273.15 80.75 276.05C80.3833 278.817 81.4167 280.733 83.85 281.8L83.75 286.45L88.2 285.6L89.2 289.75C95.3667 289.283 98.45 284.05 98.45 274.05C100.683 271.317 100.917 269.017 99.15 267.15C98.5167 265.017 98.5167 262.883 99.15 260.75C105.417 254.05 110.133 246.467 113.3 238C115.6 230.067 116.233 222.183 115.2 214.35L122.95 198.7C128.05 188.667 130.95 178.533 131.65 168.3H138.7C134.133 165.133 130.833 160.517 128.8 154.45C132.9 156.917 136.867 158.683 140.7 159.75C144.433 160.017 147.667 159.633 150.4 158.6C153.3 158.333 156.067 157.583 158.7 156.35C159.133 155.683 158.9 155.333 158 155.3L154.25 155.95C152.917 155.483 152.7 154.55 153.6 153.15L159.75 152.6C160.083 152.2 160.117 151.783 159.85 151.35Z" class="icon-fg"/>
<path d="M12 80.1C11.1667 79.9667 10.7167 80.2667 10.65 81C10.6167 81.0667 10.6 81.1333 10.6 81.2L37.3 112.2L38.75 111.2L12 80.1Z" class="icon-fg"/>
<path d="M28.55 26.55C26.05 24.45 23.55 23.1167 21.05 22.55C23.8833 25.9167 25.9667 29.2833 27.3 32.65C32.1333 48.85 39.1167 63.85 48.25 77.65L67.2 76.15V72.1C55.1 54.7333 42.2167 39.55 28.55 26.55ZM142.65 96.25C151.917 71.5833 157.15 42.5833 158.35 9.25C144.117 20.9833 131.567 35.9 120.7 54C104.6 76.8667 95.1333 100.767 92.3 125.7L110.25 139.75C120.417 139.783 127.55 137.05 131.65 131.55C133.817 124.55 133.183 118.5 129.75 113.4C135.483 109.633 139.783 103.917 142.65 96.25Z" class="icon-fg"/>
<path d="M165.65 117.25L151 103.75L42.6 212.4L56.5 226.05L165.65 117.25Z" fill="#FF5900"/>
</svg>
