<svg width="230" height="299" viewBox="0 0 230 299" fill="none" xmlns="http://www.w3.org/2000/svg">
<path d="M106.15 72.1C80.0833 72.1 57.8333 81.3 39.4 99.7C21 118.133 11.8 140.383 11.8 166.45C11.8 188.45 18.3333 207.717 31.4 224.25C33.8667 227.317 36.5333 230.283 39.4 233.15C41.3333 235.083 43.3166 236.933 45.35 238.7C62.55 253.433 82.8167 260.8 106.15 260.8C132.217 260.8 154.45 251.583 172.85 233.15C191.283 214.75 200.5 192.517 200.5 166.45C200.5 143.117 193.133 122.85 178.4 105.65C176.667 103.617 174.817 101.633 172.85 99.7C169.983 96.8333 167.017 94.1667 163.95 91.7C147.417 78.6333 128.15 72.1 106.15 72.1ZM52.7 113.05C67.4667 98.3167 85.2833 90.95 106.15 90.95C122.883 90.95 137.65 95.7167 150.45 105.25C153.583 107.55 156.617 110.15 159.55 113.05C161.483 115.017 163.3 117.033 165 119.1C176.1 132.567 181.65 148.35 181.65 166.45C181.65 187.317 174.283 205.1 159.55 219.8C144.783 234.567 126.983 241.95 106.15 241.95C88.05 241.95 72.25 236.4 58.75 225.3C56.6833 223.6 54.6667 221.767 52.7 219.8C49.8 216.9 47.2166 213.9 44.95 210.8C35.45 198 30.7 183.217 30.7 166.45C30.7 145.617 38.0333 127.817 52.7 113.05Z" fill="#FF5900"/>
<path d="M106.15 90.95C85.2833 90.95 67.4666 98.3167 52.7 113.05C38.0333 127.817 30.7 145.617 30.7 166.45C30.7 183.217 35.45 198 44.95 210.8C47.2166 213.9 49.8 216.9 52.7 219.8C54.6666 221.767 56.6833 223.6 58.75 225.3C72.25 236.4 88.05 241.95 106.15 241.95C126.983 241.95 144.783 234.567 159.55 219.8C174.283 205.1 181.65 187.317 181.65 166.45C181.65 148.35 176.1 132.567 165 119.1C163.3 117.033 161.483 115.017 159.55 113.05C156.617 110.15 153.583 107.55 150.45 105.25C137.65 95.7167 122.883 90.95 106.15 90.95Z" class="icon-bg"/>
<path d="M85.2 199.5H74.3V235.15C75.3666 235.65 76.4333 236.117 77.5 236.55V234.9C77.5 234.3 77.7166 233.767 78.15 233.3C78.5833 232.867 79.1 232.65 79.7 232.65C80.3333 232.65 80.8666 232.867 81.3 233.3C81.7333 233.767 81.95 234.3 81.95 234.9V238.2C83.0166 238.567 84.1 238.9 85.2 239.2V199.5ZM41.55 205.8C42.6166 207.5 43.75 209.167 44.95 210.8L45 210.85L56.05 199.5H47.8L41.55 205.8ZM41.15 199.5H38.05C38.3833 200.2 38.7333 200.883 39.1 201.55L41.15 199.5ZM141.4 233.45C140.533 232.283 139.617 231.117 138.65 229.95L108.2 199.5H97.7L150.35 252.2C148.983 246.033 146 239.783 141.4 233.45ZM168.65 152.45C168.583 152.45 168.517 152.45 168.45 152.45L31.9 152.5C31.1 157 30.7 161.65 30.7 166.45C30.7 176.85 32.5333 186.483 36.2 195.35H166.6C167 195.35 167.417 195.35 167.85 195.35C168.017 195.35 168.167 195.35 168.3 195.35C171.433 195.283 174.317 194.633 176.95 193.4C179.117 192.367 181.133 190.917 183 189.05C187.2 184.883 189.3 179.833 189.3 173.9C189.3 168 187.2 162.95 183 158.75C182.4 158.15 181.783 157.6 181.15 157.1C177.55 154.2 173.383 152.65 168.65 152.45ZM163.3 169.35C164.533 168.117 166.05 167.5 167.85 167.5C169.617 167.5 171.117 168.117 172.35 169.35C173.617 170.617 174.25 172.133 174.25 173.9C174.25 175.7 173.617 177.217 172.35 178.45C171.117 179.717 169.617 180.35 167.85 180.35C166.05 180.35 164.533 179.717 163.3 178.45C162.033 177.217 161.4 175.7 161.4 173.9C161.4 172.133 162.033 170.617 163.3 169.35ZM165.5 171.6C164.9 172.233 164.6 173 164.6 173.9C164.6 174.767 164.9 175.517 165.5 176.15C166.133 176.783 166.883 177.1 167.75 177.1C168.65 177.1 169.417 176.783 170.05 176.15C170.683 175.517 171 174.767 171 173.9C171 173 170.683 172.233 170.05 171.6C169.417 170.967 168.65 170.65 167.75 170.65C166.883 170.65 166.133 170.967 165.5 171.6ZM212.7 118.65L212.55 118.8L194.4 142.55C189.467 147.117 184.717 147.85 180.15 144.75C176.75 141.317 175.95 137.133 177.75 132.2C176.683 132.833 175.683 133.55 174.75 134.35C170.717 137.617 167.45 142.2 164.95 148.1H169.25C169.317 148.1 169.383 148.1 169.45 148.1C173.35 148.233 176.917 149.15 180.15 150.85C182.017 151.783 183.767 152.967 185.4 154.4C185.867 154.8 186.35 155.25 186.85 155.75C188.617 157.517 190.1 159.433 191.3 161.5L225.7 116.5V108.15C225.567 107.05 224.883 106.833 223.65 107.5L221.15 110.2L219.85 109.3C214.317 106.2 209.033 106.133 204 109.1L214.1 116.8L212.7 118.65ZM121.85 92.45C121.717 93.7167 121.617 95.0167 121.55 96.35V147.9H146.55V92.1C146.017 81.4333 143.45 70.6833 138.85 59.85C128.95 67.05 123.283 77.9167 121.85 92.45ZM127.15 95.05C127.65 94.5833 128.217 94.35 128.85 94.35H128.9C129.067 94.35 129.217 94.3667 129.35 94.4C129.55 94.4333 129.733 94.4833 129.9 94.55C130.167 94.6833 130.4 94.85 130.6 95.05C131.067 95.5167 131.3 96.0833 131.3 96.75V139C131.3 139.667 131.067 140.233 130.6 140.7C130.133 141.2 129.567 141.45 128.9 141.45H128.85C128.217 141.45 127.65 141.2 127.15 140.7C126.683 140.233 126.45 139.667 126.45 139V96.75C126.45 96.0833 126.683 95.5167 127.15 95.05ZM37.6 78.55C37.2 80.15 37.25 81.5667 37.75 82.8L73.5 147.9H109.6L97.2 125.3L91.55 128.2C90.25 128.767 89.1666 128.45 88.3 127.25L84.55 120.3C84.2166 119.533 84.3333 118.75 84.9 117.95C88.3666 115.35 89.6666 111.4 88.8 106.1C86.5333 101.333 83.8166 99.2833 80.65 99.95C82.45 103.883 82.0333 107.6 79.4 111.1C75.2666 114.133 70.7833 113.917 65.95 110.45C64.3166 108.983 62.8 107.35 61.4 105.55C56.4666 99.1833 53.0166 90.7333 51.05 80.2C50.5166 75.7333 48.05 73.7333 43.65 74.2C40.4833 74.8 38.4666 76.25 37.6 78.55Z" class="icon-fg"/>
<path d="M47.8 199.5H41.15L39.1 201.55C39.8666 202.983 40.6833 204.4 41.55 205.8L47.8 199.5Z" class="icon-fg"/>
<path d="M167 117.5L152.2 103.55L43.05 212.55L57.3 226.65L167 117.5Z" fill="#FF5900"/>
</svg>
